<svg version="1.1" id="Layer_1" xmlns="http://www.w3.org/2000/svg" xmlns:xlink="http://www.w3.org/1999/xlink" x="0px" y="0px"
	 width="100%" viewBox="0 0 500 500" enable-background="new 0 0 500 500" xml:space="preserve">

<path fill="#0678F3" opacity="1.000000" stroke="none" 
	d="
M271.061005,19.966667 
	C291.370087,21.205210 310.848175,26.195465 329.727936,33.492130 
	C350.857758,41.658421 370.560913,52.497044 388.164856,66.849251 
	C396.109344,73.326248 404.168579,79.800560 411.263885,87.155708 
	C434.381439,111.119781 452.081940,138.725159 462.712311,170.320068 
	C467.911560,185.772827 471.872833,201.805756 474.580688,217.881607 
	C476.765045,230.849579 477.297363,244.325409 476.688354,257.489197 
	C475.157715,290.572968 467.879822,322.497467 452.711792,352.136169 
	C442.870880,371.365601 430.540436,388.908966 415.762329,404.932190 
	C395.597595,426.795837 371.973755,443.691711 345.455322,456.467255 
	C324.806885,466.414856 302.994385,473.551025 280.015869,475.810669 
	C266.542633,477.135620 252.897964,478.323822 239.421768,477.675385 
	C211.908539,476.351410 185.629974,469.347748 160.367447,458.126007 
	C141.004868,449.525024 123.220627,438.514404 106.979362,425.119476 
	C86.966888,408.614227 70.216118,389.154144 57.012344,366.724518 
	C44.879410,346.114014 35.707817,324.291168 30.702463,300.888489 
	C28.584200,290.984497 27.205984,280.877686 26.206057,270.792206 
	C25.308865,261.742950 25.028019,252.593338 25.109211,243.493637 
	C25.362438,215.112122 31.489923,187.911560 41.854664,161.534058 
	C54.904732,128.322601 75.125656,100.096992 101.463066,76.350121 
	C119.968948,59.664474 140.686630,45.920521 163.985809,36.800358 
	C177.542053,31.493950 191.567657,27.218275 205.649078,23.486309 
	C213.826569,21.319050 222.532684,21.146496 231.925842,20.080875 
	C245.587509,20.045818 258.324249,20.006243 271.061005,19.966667 
M263.426971,240.036407 
	C279.615112,243.775223 295.994476,246.855331 311.925629,251.479599 
	C322.932281,254.674469 333.245911,260.108643 340.832977,269.389771 
	C350.674225,281.428436 346.638214,296.857361 332.077545,302.160126 
	C323.318512,305.350037 314.346069,304.762085 305.520294,302.394684 
	C287.732117,297.623413 272.440643,287.740234 256.997772,278.225525 
	C237.136078,265.988220 217.268188,253.971069 193.756256,249.627151 
	C160.253510,243.437393 129.476883,254.117020 108.699898,282.716431 
	C107.003540,285.051453 105.942818,287.848236 104.586739,290.430481 
	C104.988014,290.770294 105.389290,291.110138 105.790565,291.449951 
	C106.907135,290.768982 108.066910,290.149323 109.133835,289.397858 
	C127.220192,276.659424 146.804321,268.652496 169.438171,269.855042 
	C188.810455,270.884338 205.823273,278.608124 222.162231,288.204102 
	C237.653320,297.302094 252.685577,307.238403 268.519318,315.681366 
	C288.041107,326.090881 308.759369,332.047119 331.428040,329.040588 
	C354.619324,325.964783 372.350952,311.442841 376.475006,290.048096 
	C380.195770,270.745636 372.648071,255.183273 358.379913,242.492142 
	C345.046356,230.632309 329.128662,223.510696 312.375153,218.157440 
	C287.377655,210.170029 261.361359,207.168625 235.604965,202.904480 
	C220.970703,200.481705 206.341507,197.878250 193.775452,189.165573 
	C183.033173,181.717438 179.739792,169.587936 184.703354,157.445053 
	C189.145416,146.578018 197.013916,138.680634 206.969986,133.309128 
	C246.450699,112.008438 286.342499,112.718643 325.975403,132.840454 
	C333.147614,136.481827 339.199707,142.296783 345.919128,146.888519 
	C347.373016,147.882034 350.242767,148.880707 351.098145,148.190002 
	C352.407043,147.133087 353.422485,144.366364 352.981750,142.758881 
	C351.946381,138.982742 350.496185,135.104401 348.291962,131.901947 
	C338.610382,117.835953 324.921936,108.623726 309.306396,102.660011 
	C274.624115,89.414513 239.769089,90.872787 205.374207,103.826637 
	C184.707901,111.610008 166.889496,123.693375 154.881836,142.809967 
	C136.567383,171.967209 145.179840,203.190567 175.599960,219.290771 
	C187.794876,225.745087 200.799240,229.701935 214.280624,232.077713 
	C230.336777,234.907242 246.464340,237.331451 263.426971,240.036407 
M127.469147,318.935333 
	C116.148567,327.770203 107.621964,338.523804 103.847076,352.610504 
	C108.418381,350.015991 112.355141,346.865173 116.454010,343.941620 
	C135.186798,330.580139 155.611786,327.435059 177.604736,333.987488 
	C191.192444,338.035736 202.804718,345.855988 214.669785,353.235565 
	C231.596939,363.763580 247.873810,375.692688 265.748688,384.272858 
	C314.045776,407.456146 369.639130,388.145691 394.707947,340.777527 
	C396.592896,337.215851 397.927612,333.362976 399.518066,329.645477 
	C399.090790,329.364777 398.663483,329.084076 398.236206,328.803406 
	C397.029236,329.803345 395.848145,330.836609 394.611237,331.798035 
	C384.644226,339.545105 375.253784,348.230133 364.571808,354.820862 
	C341.365509,369.139069 316.108429,374.004883 290.100372,363.894348 
	C276.440125,358.583984 263.569305,350.897369 251.000381,343.207672 
	C232.994278,332.191528 215.971176,319.512817 195.856400,312.285156 
	C172.289230,303.817047 149.543655,304.376343 127.469147,318.935333 
z"/>
<path fill="#3C86DD" opacity="1.000000" stroke="none" 
	d="
M270.817413,19.606583 
	C258.324249,20.006243 245.587509,20.045818 232.370941,20.077776 
	C232.736099,19.726496 233.581161,19.083923 234.426041,19.084146 
	C246.475311,19.087318 258.524567,19.177389 270.817413,19.606583 
z"/>
<path fill="#F8FCFD" opacity="1.000000" stroke="none" 
	d="
M262.993958,239.983841 
	C246.464340,237.331451 230.336777,234.907242 214.280624,232.077713 
	C200.799240,229.701935 187.794876,225.745087 175.599960,219.290771 
	C145.179840,203.190567 136.567383,171.967209 154.881836,142.809967 
	C166.889496,123.693375 184.707901,111.610008 205.374207,103.826637 
	C239.769089,90.872787 274.624115,89.414513 309.306396,102.660011 
	C324.921936,108.623726 338.610382,117.835953 348.291962,131.901947 
	C350.496185,135.104401 351.946381,138.982742 352.981750,142.758881 
	C353.422485,144.366364 352.407043,147.133087 351.098145,148.190002 
	C350.242767,148.880707 347.373016,147.882034 345.919128,146.888519 
	C339.199707,142.296783 333.147614,136.481827 325.975403,132.840454 
	C286.342499,112.718643 246.450699,112.008438 206.969986,133.309128 
	C197.013916,138.680634 189.145416,146.578018 184.703354,157.445053 
	C179.739792,169.587936 183.033173,181.717438 193.775452,189.165573 
	C206.341507,197.878250 220.970703,200.481705 235.604965,202.904480 
	C261.361359,207.168625 287.377655,210.170029 312.375153,218.157440 
	C329.128662,223.510696 345.046356,230.632309 358.379913,242.492142 
	C372.648071,255.183273 380.195770,270.745636 376.475006,290.048096 
	C372.350952,311.442841 354.619324,325.964783 331.428040,329.040588 
	C308.759369,332.047119 288.041107,326.090881 268.519318,315.681366 
	C252.685577,307.238403 237.653320,297.302094 222.162231,288.204102 
	C205.823273,278.608124 188.810455,270.884338 169.438171,269.855042 
	C146.804321,268.652496 127.220192,276.659424 109.133835,289.397858 
	C108.066910,290.149323 106.907135,290.768982 105.790565,291.449951 
	C105.389290,291.110138 104.988014,290.770294 104.586739,290.430481 
	C105.942818,287.848236 107.003540,285.051453 108.699898,282.716431 
	C129.476883,254.117020 160.253510,243.437393 193.756256,249.627151 
	C217.268188,253.971069 237.136078,265.988220 256.997772,278.225525 
	C272.440643,287.740234 287.732117,297.623413 305.520294,302.394684 
	C314.346069,304.762085 323.318512,305.350037 332.077545,302.160126 
	C346.638214,296.857361 350.674225,281.428436 340.832977,269.389771 
	C333.245911,260.108643 322.932281,254.674469 311.925629,251.479599 
	C295.994476,246.855331 279.615112,243.775223 262.993958,239.983841 
z"/>
<path fill="#F7FBFD" opacity="1.000000" stroke="none" 
	d="
M127.759827,318.726257 
	C149.543655,304.376343 172.289230,303.817047 195.856400,312.285156 
	C215.971176,319.512817 232.994278,332.191528 251.000381,343.207672 
	C263.569305,350.897369 276.440125,358.583984 290.100372,363.894348 
	C316.108429,374.004883 341.365509,369.139069 364.571808,354.820862 
	C375.253784,348.230133 384.644226,339.545105 394.611237,331.798035 
	C395.848145,330.836609 397.029236,329.803345 398.236206,328.803406 
	C398.663483,329.084076 399.090790,329.364777 399.518066,329.645477 
	C397.927612,333.362976 396.592896,337.215851 394.707947,340.777527 
	C369.639130,388.145691 314.045776,407.456146 265.748688,384.272858 
	C247.873810,375.692688 231.596939,363.763580 214.669785,353.235565 
	C202.804718,345.855988 191.192444,338.035736 177.604736,333.987488 
	C155.611786,327.435059 135.186798,330.580139 116.454010,343.941620 
	C112.355141,346.865173 108.418381,350.015991 103.847076,352.610504 
	C107.621964,338.523804 116.148567,327.770203 127.759827,318.726257 
z"/>
</svg>